<svg xmlns="http://www.w3.org/2000/svg" xmlns:xlink="http://www.w3.org/1999/xlink" viewBox="0 0 40 40">
<g>
	<path fill="none" stroke="currentColor" stroke-linejoin="round" stroke-miterlimit="10" stroke-width="4%" d="M20,25.4116096C17.9765987,25.4116096,17.8881912,29,16.0316372,29C14.4221315,29,10,24.5319424,10,14.7910805
		C10,11.9337606,13.5028248,9,20,9s10,2.9337606,10,5.7910805C30,24.5319424,25.5778694,29,23.9683628,29
		C22.1118088,29,22.0234013,25.4116096,20,25.4116096z"/>
	<path fill="none" stroke="currentColor" stroke-linejoin="round" stroke-miterlimit="10" stroke-width="4%" d="M20.0236034,1C19.853157,1,3.8047094,4.9552875,3.8047094,4.9552875S3,5.3469148,3,5.7764063v13.870429
		c0,15.246254,15.9567375,19.0034103,16.6356449,19.2819405c0.2323647,0.0952415,0.4980106,0.0944138,0.7269745,0.0008278
		C21.0432625,38.6502457,37,34.8930893,37,19.6468353V5.7764063c0-0.4294915-0.8144073-0.8218627-0.8144073-0.8218627
		S20.1468086,1,20.0236034,1z"/>
</g>
</svg>
