<svg xmlns="http://www.w3.org/2000/svg" xmlns:xlink="http://www.w3.org/1999/xlink" viewBox="0 0 40 40" >
<g>
	<rect x="10" y="26" fill="none" stroke="currentColor" stroke-linejoin="round" stroke-miterlimit="10" stroke-width="4%" width="20" height="6"/>
	<line fill="none" stroke="currentColor" stroke-linejoin="round" stroke-miterlimit="10" stroke-width="4%" x1="12" y1="26" x2="12" y2="18"/>
	<line fill="none" stroke="currentColor" stroke-linejoin="round" stroke-miterlimit="10" stroke-width="4%" x1="16" y1="26" x2="16" y2="18"/>
	<line fill="none" stroke="currentColor" stroke-linejoin="round" stroke-miterlimit="10" stroke-width="4%" x1="20" y1="26" x2="20" y2="18"/>
	<line fill="none" stroke="currentColor" stroke-linejoin="round" stroke-miterlimit="10" stroke-width="4%" x1="24" y1="26" x2="24" y2="18"/>
	<line fill="none" stroke="currentColor" stroke-linejoin="round" stroke-miterlimit="10" stroke-width="4%" x1="28" y1="26" x2="28" y2="18"/>
	<path fill="none" stroke="currentColor" stroke-linejoin="round" stroke-miterlimit="10" stroke-width="4%" d="M29,18H11c-2.2091389,0-4,1.7908611-4,4v-6c0-2.2091389,1.7908611-4,4-4h18c2.2091389,0,4-1.7908611,4-4v6
		C33,16.2091389,31.2091389,18,29,18z"/>
	<line fill="none" stroke="currentColor" stroke-linejoin="round" stroke-miterlimit="10" stroke-width="4%" x1="3" y1="27" x2="10" y2="27"/>
	<line fill="none" stroke="currentColor" stroke-linejoin="round" stroke-miterlimit="10" stroke-width="4%" x1="3" y1="31" x2="10" y2="31"/>
</g>
</svg>
