<svg xmlns="http://www.w3.org/2000/svg" xmlns:xlink="http://www.w3.org/1999/xlink" viewBox="0 0 40 40" >
<g>
	<path fill="none" stroke="currentColor" stroke-linejoin="round" stroke-miterlimit="10" stroke-width="4%" d="M16.8223915,9.8032637c-2.343154,2.3431549-2.343154,6.142127,0,8.4852819l8.485281-8.4852819
		C22.9645176,7.4601092,19.1655464,7.4601092,16.8223915,9.8032637z"/>
	<line fill="none" stroke="currentColor" stroke-linejoin="round" stroke-miterlimit="10" stroke-width="4%" x1="15" y1="34" x2="25" y2="34"/>
	<line fill="none" stroke="currentColor" stroke-linejoin="round" stroke-miterlimit="10" stroke-width="4%" x1="16.9999962" y1="33.9999924" x2="16.9999962" y2="28.0009403"/>
	<line fill="none" stroke="currentColor" stroke-linejoin="round" stroke-miterlimit="10" stroke-width="4%" x1="22.9999962" y1="33.9999924" x2="22.9999962" y2="28.0009403"/>
	<polygon fill="none" stroke="currentColor" stroke-linejoin="round" stroke-miterlimit="10" stroke-width="4%" points="35.9217033,19.8003845 27.6954956,28 12.6559038,28.0009499 6.7573595,33.8994942
		3.9289322,31.0710678 11,24 26,24 33.0710678,16.9289322 33.0710678,16.9497471 35.8994942,19.7781754 	"/>
	<line fill="none" stroke="currentColor" stroke-linejoin="round" stroke-miterlimit="10" stroke-width="4%" x1="6.9999847" y1="28.0009499" x2="6.9999847" y2="11.8635387"/>
	<line fill="none" stroke="currentColor" stroke-linejoin="round" stroke-miterlimit="10" stroke-width="4%" x1="16.7529907" y1="9.8655119" x2="13.0057859" y2="6"/>
	<path fill="none" stroke="currentColor" stroke-linejoin="round" stroke-miterlimit="10" stroke-width="4%" d="M7,12c0-3.3137083,2.6862917-6,6-6"/>
</g>
</svg>
