<?xml version="1.0" encoding="utf-8"?>
<!-- Generator: Adobe Illustrator 16.0.3, SVG Export Plug-In . SVG Version: 6.00 Build 0)  -->
<!DOCTYPE svg PUBLIC "-//W3C//DTD SVG 1.1//EN" "http://www.w3.org/Graphics/SVG/1.1/DTD/svg11.dtd">
<svg version="1.1" xmlns="http://www.w3.org/2000/svg" xmlns:xlink="http://www.w3.org/1999/xlink" x="0px" y="0px" width="24px"
	 height="24px" viewBox="0 0 24 24" enable-background="new 0 0 24 24" xml:space="preserve">
<g id="Outline_Icons">
	<g>
		<path fill="none" stroke="#000000" stroke-linecap="round" stroke-linejoin="round" stroke-miterlimit="10" d="M10.5,23.5h-10v-1
			c0-0.551,0.448-1,1-1h8c0.553,0,1,0.449,1,1V23.5z"/>
		<path fill="none" stroke="#000000" stroke-linecap="round" stroke-linejoin="round" stroke-miterlimit="10" d="M9.5,21.5h-8v-1
			c0-0.551,0.448-1,1-1h6c0.553,0,1,0.449,1,1V21.5z"/>
		
			<rect x="7.611" y="5.416" transform="matrix(0.7071 -0.7071 0.7071 0.7071 -2.2116 10.443)" fill="none" stroke="#000000" stroke-linecap="round" stroke-linejoin="round" stroke-miterlimit="10" width="7.778" height="4.95"/>
		<path fill="none" stroke="#000000" stroke-linecap="round" stroke-linejoin="round" stroke-miterlimit="10" d="M7,8.891l-0.5-0.5
			c-0.942-0.94-2.445,0.555-1.5,1.5l4.5,4.5c0.943,0.942,2.446-0.555,1.5-1.5l-0.5-0.5"/>
		<path fill="none" stroke="#000000" stroke-linecap="round" stroke-linejoin="round" stroke-miterlimit="10" d="M16,6.891l0.5,0.5
			c0.943,0.942,2.446-0.555,1.5-1.5l-4.5-4.5c-0.942-0.94-2.445,0.555-1.5,1.5l0.5,0.5"/>
		
			<line fill="none" stroke="#000000" stroke-linecap="round" stroke-linejoin="round" stroke-miterlimit="10" x1="13.25" y1="9.641" x2="23.5" y2="19.891"/>
	</g>
</g>
<g id="Invisibla_Shape">
	<rect fill="none" width="24" height="24"/>
</g>
</svg>
