<?xml version="1.0" encoding="utf-8"?>
<!-- Generator: Adobe Illustrator 16.0.3, SVG Export Plug-In . SVG Version: 6.00 Build 0)  -->
<!DOCTYPE svg PUBLIC "-//W3C//DTD SVG 1.1//EN" "http://www.w3.org/Graphics/SVG/1.1/DTD/svg11.dtd">
<svg version="1.1" xmlns="http://www.w3.org/2000/svg" xmlns:xlink="http://www.w3.org/1999/xlink" x="0px" y="0px" width="24px"
	 height="24px" viewBox="0 0 24 24" enable-background="new 0 0 24 24" xml:space="preserve">
<g id="Outline_Icons_1_">
	<g id="Outline_Icons">
		<g>
			<path fill="none" stroke="#000000" stroke-linejoin="round" stroke-miterlimit="10" d="M9.497,22.5H18.5c0,0,0-3.352-0.474-4.781
				c-0.413-1.244-3.396-2.076-6.526-3.255v-2.5c0,0,1-0.619,1-3c1,0,1-2,0-2c0-0.234,1.078-1.678,0.75-3
				c-0.474-1.904-6.151-1.904-6.625,0C4.256,3.488,5.5,6.645,5.5,6.964v2c0,2.381,2,3,2,3v2.5c-2.778,1.056-6.114,2.012-6.526,3.255
				C0.5,19.148,0.5,22.5,0.5,22.5H9.497z"/>
			<path fill="none" stroke="#000000" stroke-linecap="round" stroke-linejoin="round" stroke-miterlimit="10" d="M21,22.5h2.5
				c0,0,0-3.352-0.474-4.781c-0.413-1.244-3.396-2.576-6.526-3.755v-1.5c0,0,1-0.619,1-3c1,0,1-2,0-2
				c0-0.234,1.078-1.862,0.75-3.184c-0.222-0.891-2.125-2.298-3.625-1.298"/>
		</g>
	</g>
	<g id="New_icons_1_">
	</g>
</g>
<g id="Invisible_Shape">
	<rect fill="none" width="24" height="24"/>
</g>
</svg>
