<?xml version="1.0" encoding="UTF-8" standalone="no"?> <svg xmlns:inkscape="http://www.inkscape.org/namespaces/inkscape" xmlns:sodipodi="http://sodipodi.sourceforge.net/DTD/sodipodi-0.dtd" xmlns="http://www.w3.org/2000/svg" xmlns:svg="http://www.w3.org/2000/svg" version="1.1" id="svg2" xml:space="preserve" width="4389.8267" height="1634.6" viewBox="0 0 4389.8267 1634.6" sodipodi:docname="Gnatos Logo.svg" inkscape:version="1.1.2 (0a00cf5339, 2022-02-04)"><defs id="defs6"><rect x="1916.1325" y="1210.4533" width="2392.2529" height="324.86725" id="rect13493"></rect><rect x="1791.0697" y="810.17456" width="1979.7923" height="531.75906" id="rect5269"></rect><clipPath id="clipPath20"><path d="m 4966.59,2362.32 c -327.09,77.73 -717.34,209.36 -1024.83,430.38 -613.1,440.75 -672.67,1592.77 -678.36,2352.37 -426.05,39.51 -760.85,398.7 -760.85,834.88 0,462.5 376.33,838.82 838.83,838.82 462.5,0 838.83,-376.32 838.83,-838.82 0,-326.13 -187.52,-608.71 -460.03,-747.41 2.66,-612.13 37.71,-1744.54 488.44,-2068.54 532.16,-382.46 1433.95,-451.23 1442.99,-451.89 l 27.86,-3.68 c 2196.53,-431.03 2750.41,-137.54 2886.66,8.59 50.12,53.81 109.79,151.15 49.4,374.76 -153.45,567.66 -100.64,1049.7 152.66,1393.93 114.26,155.29 -29.42,340.54 -46.16,361.19 l -131.34,161.6 147.25,147.52 c 218.86,214.68 270.82,265.7 116.21,574.93 -288.02,576.14 196.98,850.1 404.12,967.09 34.6,19.54 68.21,38.4 98.52,57.6 42.14,26.57 114.09,82.45 122.46,157.63 8.71,78.2 -48.84,183.58 -162.04,296.84 -358.18,358.18 -1088,1194.55 -1220.79,1415.76 -34.91,58.25 -139.6,234.32 -129.14,2673.43 -581.28,213.3 -1208.44,329.9 -1862.26,329.9 -3001.76,0 -5443.832,-2454.53 -5443.832,-5471.64 0,-2124.22 1211.352,-3968.16 2975.442,-4874.36 327.01,412 899.2,812 1329.96,1079.12 z" id="path18"></path></clipPath><linearGradient x1="0" y1="0" x2="1" y2="0" gradientUnits="userSpaceOnUse" gradientTransform="matrix(-8684.82,861.976,861.976,8684.82,10738.2,5887.31)" spreadMethod="pad" id="linearGradient30"><stop style="stop-opacity:1;stop-color:#dbeaee" offset="0" id="stop22"></stop><stop style="stop-opacity:1;stop-color:#dbeaee" offset="0.0355828" id="stop24"></stop><stop style="stop-opacity:1;stop-color:#3279b2" offset="0.696688" id="stop26"></stop><stop style="stop-opacity:1;stop-color:#3279b2" offset="1" id="stop28"></stop></linearGradient><clipPath id="clipPath42"><path d="m 8424.27,11106.5 c -0.34,-1027.2 24.81,-2068.8 73.2,-2259.54 122.86,-187.1 778.27,-948.67 1143.09,-1313.55 219.64,-219.65 318.28,-445.32 293.1,-670.82 -21.94,-196.64 -140.1,-371.91 -332.73,-493.6 -36.34,-22.94 -76.36,-45.71 -117.77,-69.1 -288.52,-162.93 -298.29,-207.81 -219.98,-364.43 237.06,-474.28 133.35,-734.11 -77.75,-973.4 94.49,-198.65 144.28,-484.78 -48.96,-747.4 -212.05,-288.13 -160.3,-704.81 -79.54,-1003.65 88.7,-328.22 36.12,-599.26 -156.34,-805.79 -236,-253.12 -679.24,-379.42 -1340.46,-379.42 -501.86,0 -1130.39,73.3 -1888.15,218.6 C 5287.35,2036.8 4479.94,1546.9 4066.83,1085.3 4696.82,828.602 5384.49,685.902 6105.02,685.902 c 3001.76,0 5443.88,2454.548 5443.88,5471.658 0,2183.71 -1279.8,4071.94 -3124.63,4948.94 z" id="path40"></path></clipPath><linearGradient x1="0" y1="0" x2="1" y2="0" gradientUnits="userSpaceOnUse" gradientTransform="matrix(-3143.43,-10412.6,-10412.6,3143.43,10042.8,10617.9)" spreadMethod="pad" id="linearGradient50"><stop style="stop-opacity:1;stop-color:#844c8a" offset="0" id="stop44"></stop><stop style="stop-opacity:1;stop-color:#844c8a" offset="0.300726" id="stop46"></stop><stop style="stop-opacity:1;stop-color:#d3afd2" offset="1" id="stop48"></stop></linearGradient></defs><g id="g8" inkscape:groupmode="layer" inkscape:label="ink_ext_XXXXXX" transform="matrix(1.3333333,0,0,-1.3333333,0,1634.6)"><g id="g10" transform="matrix(0.1,0,0,0.1,1.8093937,-6.6969427)" style="stroke-width:0.9975;stroke-miterlimit:4;stroke-dasharray:none"><path d="M 12227,6129.77 C 12227,2744.41 9489.92,0 6113.51,0 2737.11,0 0,2744.41 0,6129.77 0,9515.13 2737.11,12259.5 6113.51,12259.5 9489.92,12259.5 12227,9515.13 12227,6129.77" style="fill:#ba75c1;fill-opacity:1;fill-rule:nonzero;stroke:none;stroke-width:0.9975;stroke-miterlimit:4;stroke-dasharray:none" id="path12"></path><g id="g14" style="stroke-width:0.99750002;stroke-miterlimit:4;stroke-dasharray:none;opacity:1;stroke:#000000;stroke-opacity:1"><g id="g16" clip-path="url(#clipPath20)" style="stroke-width:0.99750002;stroke-miterlimit:4;stroke-dasharray:none;stroke:#000000;stroke-opacity:1"><path d="m 4966.59,2362.32 c -327.09,77.73 -717.34,209.36 -1024.83,430.38 -613.1,440.75 -672.67,1592.77 -678.36,2352.37 -426.05,39.51 -760.85,398.7 -760.85,834.88 0,462.5 376.33,838.82 838.83,838.82 462.5,0 838.83,-376.32 838.83,-838.82 0,-326.13 -187.52,-608.71 -460.03,-747.41 2.66,-612.13 37.71,-1744.54 488.44,-2068.54 532.16,-382.46 1433.95,-451.23 1442.99,-451.89 l 27.86,-3.68 c 2196.53,-431.03 2750.41,-137.54 2886.66,8.59 50.12,53.81 109.79,151.15 49.4,374.76 -153.45,567.66 -100.64,1049.7 152.66,1393.93 114.26,155.29 -29.42,340.54 -46.16,361.19 l -131.34,161.6 147.25,147.52 c 218.86,214.68 270.82,265.7 116.21,574.93 -288.02,576.14 196.98,850.1 404.12,967.09 34.6,19.54 68.21,38.4 98.52,57.6 42.14,26.57 114.09,82.45 122.46,157.63 8.71,78.2 -48.84,183.58 -162.04,296.84 -358.18,358.18 -1088,1194.55 -1220.79,1415.76 -34.91,58.25 -139.6,234.32 -129.14,2673.43 -581.28,213.3 -1208.44,329.9 -1862.26,329.9 -3001.76,0 -5443.832,-2454.53 -5443.832,-5471.64 0,-2124.22 1211.352,-3968.16 2975.442,-4874.36 327.01,412 899.2,812 1329.96,1079.12" style="fill:url(#linearGradient30);fill-opacity:1;fill-rule:nonzero;stroke:#000000;stroke-width:0.99750002;stroke-miterlimit:4;stroke-dasharray:none;stroke-opacity:1" id="path32"></path></g></g><path d="m 3722.95,5979.95 c 0,210.37 -171.19,381.57 -381.57,381.57 -210.38,0 -381.57,-171.2 -381.57,-381.57 0,-210.38 171.19,-381.57 381.57,-381.57 210.38,0 381.57,171.19 381.57,381.57" style="fill:#ba75c1;fill-opacity:1;fill-rule:nonzero;stroke:none;stroke-width:0.9975;stroke-miterlimit:4;stroke-dasharray:none" id="path34"></path><g id="g36" style="stroke-width:0.9975;stroke-miterlimit:4;stroke-dasharray:none"><g id="g38" clip-path="url(#clipPath42)" style="stroke-width:0.9975;stroke-miterlimit:4;stroke-dasharray:none"><path d="m 8424.27,11106.5 c -0.34,-1027.2 24.81,-2068.8 73.2,-2259.54 122.86,-187.1 778.27,-948.67 1143.09,-1313.55 219.64,-219.65 318.28,-445.32 293.1,-670.82 -21.94,-196.64 -140.1,-371.91 -332.73,-493.6 -36.34,-22.94 -76.36,-45.71 -117.77,-69.1 -288.52,-162.93 -298.29,-207.81 -219.98,-364.43 237.06,-474.28 133.35,-734.11 -77.75,-973.4 94.49,-198.65 144.28,-484.78 -48.96,-747.4 -212.05,-288.13 -160.3,-704.81 -79.54,-1003.65 88.7,-328.22 36.12,-599.26 -156.34,-805.79 -236,-253.12 -679.24,-379.42 -1340.46,-379.42 -501.86,0 -1130.39,73.3 -1888.15,218.6 C 5287.35,2036.8 4479.94,1546.9 4066.83,1085.3 4696.82,828.602 5384.49,685.902 6105.02,685.902 c 3001.76,0 5443.88,2454.548 5443.88,5471.658 0,2183.71 -1279.8,4071.94 -3124.63,4948.94" style="fill:url(#linearGradient50);fill-opacity:1;fill-rule:nonzero;stroke:none;stroke-width:0.9975;stroke-miterlimit:4;stroke-dasharray:none" id="path52"></path></g></g><path d="m 6105.02,685.902 c -720.53,0 -1408.2,142.7 -2038.19,399.398 413.11,461.6 1220.52,951.5 1605.15,1159.1 757.76,-145.3 1386.29,-218.6 1888.15,-218.6 661.22,0 1104.46,126.3 1340.46,379.42 192.46,206.53 245.04,477.57 156.34,805.79 -80.76,298.84 -132.51,715.52 79.54,1003.65 193.24,262.62 143.45,548.75 48.96,747.4 211.1,239.29 314.81,499.12 77.75,973.4 -78.31,156.62 -68.54,201.5 219.98,364.43 41.41,23.39 81.43,46.16 117.77,69.1 192.63,121.69 310.79,296.96 332.73,493.6 25.18,225.5 -73.46,451.17 -293.1,670.82 -364.82,364.88 -1020.23,1126.45 -1143.09,1313.55 -48.39,190.74 -73.54,1232.34 -73.2,2259.54 1844.83,-877 3124.63,-2765.23 3124.63,-4948.94 0,-3017.11 -2442.12,-5471.658 -5443.88,-5471.658 z M 2959.81,5979.95 c 0,210.37 171.19,381.57 381.57,381.57 210.38,0 381.57,-171.2 381.57,-381.57 0,-210.38 -171.19,-381.57 -381.57,-381.57 -210.38,0 -381.57,171.19 -381.57,381.57 z M 661.188,6157.56 c 0,3017.11 2442.072,5471.64 5443.832,5471.64 653.82,0 1280.98,-116.6 1862.26,-329.9 -10.46,-2439.11 94.23,-2615.18 129.14,-2673.43 132.79,-221.21 862.61,-1057.58 1220.79,-1415.76 113.2,-113.26 170.75,-218.64 162.04,-296.84 -8.37,-75.18 -80.32,-131.06 -122.46,-157.63 -30.31,-19.2 -63.92,-38.06 -98.52,-57.6 -207.14,-116.99 -692.14,-390.95 -404.12,-967.09 154.61,-309.23 102.65,-360.25 -116.21,-574.93 l -147.25,-147.52 131.34,-161.6 c 16.74,-20.65 160.42,-205.9 46.16,-361.19 -253.3,-344.23 -306.11,-826.27 -152.66,-1393.93 60.39,-223.61 0.72,-320.95 -49.4,-374.76 C 8429.88,2570.89 7876,2277.4 5679.47,2708.43 l -27.86,3.68 c -9.04,0.66 -910.83,69.43 -1442.99,451.89 -450.73,324 -485.78,1456.41 -488.44,2068.54 272.51,138.7 460.03,421.28 460.03,747.41 0,462.5 -376.33,838.82 -838.83,838.82 -462.5,0 -838.83,-376.32 -838.83,-838.82 0,-436.18 334.8,-795.37 760.85,-834.88 5.69,-759.6 65.26,-1911.62 678.36,-2352.37 307.49,-221.02 697.74,-352.65 1024.83,-430.38 C 4535.83,2095.2 3963.64,1695.2 3636.63,1283.2 1872.54,2189.4 661.188,4033.34 661.188,6157.56 Z M 6105.02,12086.5 c -3253.88,0 -5901.09,-2659.7 -5901.09,-5928.94 0,-3269.18 2647.21,-5928.861 5901.09,-5928.861 3253.88,0 5901.08,2659.681 5901.08,5928.861 0,3269.24 -2647.2,5928.94 -5901.08,5928.94" style="fill:#ffffff;fill-opacity:1;fill-rule:nonzero;stroke:none;stroke-width:0.9975;stroke-miterlimit:4;stroke-dasharray:none" id="path54"></path><path d="m 17020.9,6455.4 c 0,134.8 -14.2,248.33 -49.7,354.78 -163.2,454.13 -596,816 -1206.3,816 -816,0 -1390.7,-596.02 -1390.7,-1504.29 0,-681.2 425.7,-1419.16 1376.5,-1419.16 539.3,0 1014.8,347.69 1199.2,816 42.6,106.45 71,241.3 71,369.01 z m 376.1,1369.49 c -21.3,-276.75 -28.4,-546.4 -28.4,-823.09 V 4922.7 c 0,-830.22 -205.8,-1305.62 -525.1,-1589.46 -354.8,-319.28 -865.7,-418.63 -1277.3,-418.63 -425.7,0 -915.3,106.4 -1213.3,333.46 l 127.7,276.74 c 276.7,-184.48 645.7,-326.42 1142.4,-326.42 816,0 1397.9,411.6 1397.9,1447.58 v 496.71 h -14.2 c -198.7,-361.92 -645.8,-723.78 -1355.3,-723.78 -972.1,0 -1625,801.81 -1625,1660.4 0,1142.42 837.3,1830.76 1703,1830.76 752.2,0 1156.7,-390.27 1312.7,-716.7 h 14.3 l 21.2,631.53 h 319.4" style="fill:#ba75c1;fill-opacity:1;fill-rule:nonzero;stroke:none;stroke-width:0.9975;stroke-miterlimit:4;stroke-dasharray:none" id="path56"></path><path d="m 18121,7001.8 c 0,276.69 -7,546.34 -28.4,823.09 h 326.5 l 28.4,-681.2 h 14.1 c 205.8,418.63 688.3,766.37 1312.8,766.37 312.2,0 1326.9,-141.94 1326.9,-1554.02 V 4418.9 h -347.7 v 1937.14 c 0,667.03 -291,1255.96 -1071.5,1255.96 -546.3,0 -1000.5,-376.04 -1156.6,-808.91 -28.4,-78.03 -56.8,-198.71 -56.8,-305.1 V 4418.9 H 18121 v 2582.9" style="fill:#ba75c1;fill-opacity:1;fill-rule:nonzero;stroke:none;stroke-width:0.9975;stroke-miterlimit:4;stroke-dasharray:none" id="path58"></path><path d="m 23868.9,6235.42 c -901.2,28.36 -1937.1,-113.53 -1937.1,-901.17 0,-482.48 347.7,-716.64 745,-716.64 659.9,0 1014.7,390.22 1149.5,695.38 28.4,70.94 42.6,141.88 42.6,198.65 z m 85.1,-1816.52 -56.7,525.07 h -14.2 c -177.4,-262.51 -610.3,-610.25 -1234.7,-610.25 -773.4,0 -1085.6,525.13 -1085.6,936.67 0,773.47 716.7,1277.28 2306.1,1255.96 v 78.03 c 0,255.48 -56.8,1021.8 -965,1014.71 -340.6,0 -695.4,-85.13 -979.2,-283.84 l -113.6,248.39 c 376.1,248.34 794.8,326.42 1121.1,326.42 1156.7,0 1284.4,-894.08 1284.4,-1433.39 V 5241.98 c 0,-276.69 14.2,-546.34 56.8,-823.08 H 23954" style="fill:#ba75c1;fill-opacity:1;fill-rule:nonzero;stroke:none;stroke-width:0.9975;stroke-miterlimit:4;stroke-dasharray:none" id="path60"></path><path d="m 25614.7,8839.59 v -1014.7 h 1078.5 V 7548.14 H 25614.7 V 5369.75 c 0,-418.69 127.7,-737.96 546.3,-737.96 205.8,0 347.7,28.35 447,63.85 l 42.6,-269.65 c -120.6,-49.68 -298,-92.27 -525,-92.27 -269.7,0 -489.7,85.18 -631.6,255.48 -170.3,191.56 -227,503.81 -227,823.13 v 2135.81 h -624.5 v 276.75 h 624.5 v 908.26 l 347.7,106.44" style="fill:#2d749f;fill-opacity:1;fill-rule:nonzero;stroke:none;stroke-width:0.9975;stroke-miterlimit:4;stroke-dasharray:none" id="path62"></path><path d="m 27275.2,6107.71 c 0,-950.85 688.3,-1490.1 1426.2,-1490.1 752.2,0 1461.7,546.34 1461.7,1525.55 0,645.75 -432.8,1483.02 -1433.3,1483.02 -965,0 -1454.6,-723.73 -1454.6,-1518.47 z m 3235.6,56.77 c 0,-1277.27 -993.4,-1830.76 -1830.7,-1830.76 -1014.7,0 -1752.7,745.11 -1752.7,1752.67 0,1135.33 851.5,1823.67 1802.4,1823.67 1092.7,0 1781,-773.46 1781,-1745.58" style="fill:#2d749f;fill-opacity:1;fill-rule:nonzero;stroke:none;stroke-width:0.9975;stroke-miterlimit:4;stroke-dasharray:none" id="path64"></path><path d="m 30873,4880.12 c 205.8,-127.71 510.9,-255.42 851.5,-255.42 596,0 858.6,312.18 858.6,659.87 0,397.36 -269.7,588.98 -801.9,759.29 -617.3,198.65 -922.4,517.98 -922.4,922.44 0,482.49 383.2,943.76 1121.1,943.76 333.5,0 624.5,-92.26 823.1,-227.06 l -134.8,-283.89 c -113.5,78.09 -361.8,219.98 -752.1,219.98 -468.3,0 -716.7,-283.84 -716.7,-610.2 0,-383.19 290.9,-532.22 794.7,-702.52 624.4,-212.84 929.6,-482.48 929.6,-993.38 0,-553.5 -454.1,-979.27 -1227.6,-979.27 -361.9,0 -695.4,99.36 -950.9,248.39 l 127.8,298.01" style="fill:#2d749f;fill-opacity:1;fill-rule:nonzero;stroke:none;stroke-width:0.9975;stroke-miterlimit:4;stroke-dasharray:none" id="path66"></path><text xml:space="preserve" transform="matrix(7.5000002,0,0,-7.5000002,-18.093937,12326.47)" id="text5267" style="fill:black;fill-opacity:1;line-height:1.25;stroke:none;font-family:sans-serif;font-style:normal;font-weight:normal;font-size:40px;white-space:pre;shape-inside:url(#rect5269)"></text><text xml:space="preserve" transform="matrix(7.5000002,0,0,-7.5000002,-18.093937,12326.47)" id="text13491" style="font-style:normal;font-weight:normal;font-size:40px;line-height:1.25;font-family:sans-serif;white-space:pre;shape-inside:url(#rect13493);fill:#000000;fill-opacity:1;stroke:none"><tspan x="1916.1328" y="1899.2704" id="tspan32192"><tspan dx="0 191.59927 144.39926 247.19922 245.99994 103.19977 241.99976 103.99939 241.99988 245.99988 241.99976 247.19934 144.39917 241.99976 103.19995 224.39941 144.39941 165.19922 103.19971 191.99976" style="font-size:400px;-inkscape-font-specification:'sans-serif, Normal'" id="tspan32190">studio odontoiatrico</tspan></tspan></text></g></g></svg> 