<?xml version="1.0" encoding="UTF-8"?> <svg xmlns="http://www.w3.org/2000/svg" width="300" height="300" viewBox="0 0 300 300"><metadata><?xpacket begin="﻿" id="W5M0MpCehiHzreSzNTczkc9d"?><?xpacket end="w"?></metadata><defs><style> .cls-1 { fill: none; stroke: #fbfffa; stroke-width: 1.5px; } .cls-1, .cls-2 { opacity: 0.24; } .cls-2 { fill: #fff; fill-rule: evenodd; } </style></defs><ellipse id="circle" class="cls-1" cx="144" cy="67.5" rx="14.25" ry="14.25"></ellipse><circle id="circle-2" data-name="circle" class="cls-1" cx="96" cy="132" r="14.25"></circle><ellipse id="circle-3" data-name="circle" class="cls-1" cx="143.25" cy="234.75" rx="14.25" ry="14.25"></ellipse><ellipse id="circle-4" data-name="circle" class="cls-1" cx="32.25" cy="267.75" rx="14.25" ry="14.25"></ellipse><ellipse id="circle-5" data-name="circle" class="cls-1" cx="282.75" cy="146.25" rx="14.25" ry="14.25"></ellipse><ellipse id="circle-6" data-name="circle" class="cls-1" cx="233.625" cy="135.375" rx="9.375" ry="9.375"></ellipse><circle id="circle-7" data-name="circle" class="cls-1" cx="13.875" cy="64.875" r="9.375"></circle><circle id="circle-8" data-name="circle" class="cls-1" cx="97.875" cy="184.875" r="9.375"></circle><circle id="circle-9" data-name="circle" class="cls-1" cx="176.625" cy="22.125" r="9.375"></circle><circle id="circle-10" data-name="circle" class="cls-1" cx="188.625" cy="244.125" r="9.375"></circle><circle id="circle-11" data-name="circle" class="cls-1" cx="201.375" cy="180.375" r="5.625"></circle><circle id="circle-12" data-name="circle" class="cls-1" cx="193.875" cy="82.875" r="5.625"></circle><circle id="circle-13" data-name="circle" class="cls-1" cx="47.625" cy="86.625" r="5.625"></circle><circle id="circle-14" data-name="circle" class="cls-1" cx="79.125" cy="286.125" r="5.625"></circle><circle id="circle-15" data-name="circle" class="cls-1" cx="185.625" cy="280.875" r="5.625"></circle><circle id="circle-16" data-name="circle" class="cls-1" cx="283.875" cy="86.625" r="5.625"></circle><circle id="circle-17" data-name="circle" class="cls-1" cx="97.125" cy="91.125" r="5.625"></circle><circle id="circle-18" data-name="circle" class="cls-1" cx="52.125" cy="133.875" r="5.625"></circle><circle id="circle-19" data-name="circle" class="cls-1" cx="253.875" cy="196.875" r="5.625"></circle><circle id="circle-20" data-name="circle" class="cls-1" cx="274.125" cy="22.125" r="5.625"></circle><ellipse id="circle-21" data-name="circle" class="cls-1" cx="20.625" cy="231.375" rx="5.625" ry="5.625"></ellipse><path id="tooth" class="cls-2" d="M178.517,122.052a17.287,17.287,0,0,0-13.856-2.03,17.281,17.281,0,0,0-13.016-5.17c-8.711.424-15.61,11.131-11.711,22.306,1.847,5.293,1.329,8.854.78,12.625a30.689,30.689,0,0,0-.322,9.215c0.334,2.42.962,5.255,2.877,5.768l0.053,0.013c1.55,0.377,3.2-.819,5.352-3.876a41.31,41.31,0,0,0,2.969-5.356c1.657-3.36,3.37-6.834,5.209-6.355l0.01,0c1.815,0.487,1.56,4.353,1.313,8.092a41.221,41.221,0,0,0-.109,6.134c0.334,3.729,1.166,5.592,2.695,6.04l0.052,0.015c1.912,0.512,3.876-1.632,5.377-3.565a31.086,31.086,0,0,0,4.255-7.992c1.471-3.634,2.861-7.066,7.072-10.7C186.589,139.387,185.726,126.694,178.517,122.052ZM176.21,145.7c-4.576,3.95-6.123,7.77-7.618,11.464a29.063,29.063,0,0,1-3.981,7.516c-2.325,2.994-3.18,2.887-3.284,2.859h0c-0.037-.011-0.909-0.312-1.267-4.3a39.988,39.988,0,0,1,.113-5.823,32.722,32.722,0,0,0,.051-6.135c-0.305-2.244-1.26-3.6-2.838-4.02l-0.027-.007c-1.588-.413-3.1.287-4.487,2.082a32.619,32.619,0,0,0-3.019,5.325,39.974,39.974,0,0,1-2.811,5.09c-2.3,3.269-3.208,3.092-3.245,3.083-0.087-.021-0.9-0.324-1.421-4.111a28.649,28.649,0,0,1,.32-8.654c0.559-3.843,1.137-7.817-.871-13.572-3.515-10.074,2.7-19.3,9.92-19.65a15.364,15.364,0,0,1,11.883,4.98,1,1,0,0,0,1.028.276,15.372,15.372,0,0,1,12.782,1.629C183.631,127.723,184.13,138.867,176.21,145.7Z"></path><path id="tooth-2" data-name="tooth" class="cls-2" d="M74.824,9.047a17.284,17.284,0,0,0-13.015,5.17,17.281,17.281,0,0,0-13.857,2.03C40.621,20.97,40,33.691,48.963,41.42c4.246,3.66,5.578,7,6.989,10.544A30.657,30.657,0,0,0,60.28,60.1c1.5,1.929,3.46,4.07,5.375,3.557l0.052-.015c1.531-.449,2.362-2.31,2.7-6.033a41.3,41.3,0,0,0-.107-6.123c-0.245-3.739-.5-7.6,1.334-8.109l0.01,0c1.815-.486,3.528,2.99,5.184,6.352A41.217,41.217,0,0,0,77.8,55.1c2.154,3.062,3.805,4.26,5.354,3.884l0.052-.013c1.912-.512,2.54-3.351,2.874-5.776a31.074,31.074,0,0,0-.311-9.049c-0.543-3.883-1.055-7.55.774-12.8C90.482,20.023,83.388,9.462,74.824,9.047Zm9.828,21.636c-1.988,5.709-1.418,9.79-.866,13.737a29.044,29.044,0,0,1,.31,8.5c-0.517,3.755-1.31,4.09-1.414,4.118h0c-0.037.009-.942,0.185-3.247-3.091a39.844,39.844,0,0,1-2.814-5.1,32.725,32.725,0,0,0-3.023-5.338c-1.386-1.791-2.889-2.485-4.468-2.062l-0.026.007c-1.582.436-2.54,1.8-2.845,4.046a32.69,32.69,0,0,0,.048,6.121,39.918,39.918,0,0,1,.111,5.813c-0.358,3.981-1.231,4.282-1.268,4.293-0.086.025-.941,0.169-3.286-2.85a28.622,28.622,0,0,1-4.05-7.654c-1.437-3.608-2.924-7.339-7.541-11.318-8.081-6.967-7.309-18.064-1.234-21.977A15.366,15.366,0,0,1,61.816,16.3a1,1,0,0,0,1.028-.275,15.371,15.371,0,0,1,11.884-4.98C82.088,11.4,88.093,20.8,84.652,30.683Z"></path><path id="tooth-3" data-name="tooth" class="cls-2" d="M236.112,235.084a17.282,17.282,0,0,0-5.547,12.859,17.282,17.282,0,0,0-8.363,11.234c-1.845,8.524,6.711,17.959,18.514,17.086,5.591-.415,8.9,1.008,12.4,2.514a30.657,30.657,0,0,0,8.817,2.695c2.424,0.305,5.325.432,6.316-1.286l0.027-.047c0.764-1.4.037-3.3-2.359-6.173a41.387,41.387,0,0,0-4.405-4.254c-2.817-2.47-5.729-5.024-4.791-6.677a0.056,0.056,0,0,0,0-.008c0.94-1.628,4.608-.38,8.156.826a41.213,41.213,0,0,0,5.9,1.693c3.688,0.642,5.7.321,6.532-1.04l0.027-.047c0.99-1.714-.573-4.166-2.051-6.116a31.109,31.109,0,0,0-6.619-6.179c-3.129-2.361-6.085-4.592-8.506-9.6C254.944,231.774,242.461,229.322,236.112,235.084Zm22.248,8.35c2.631,5.443,5.92,7.925,9.1,10.326a29.05,29.05,0,0,1,6.23,5.791c2.29,3.02,1.966,3.818,1.912,3.912l0,0c-0.02.032-.536,0.8-4.482,0.11a39.835,39.835,0,0,1-5.6-1.616,32.642,32.642,0,0,0-5.913-1.637c-2.247-.287-3.8.286-4.617,1.7l-0.014.024c-0.81,1.427-.525,3.067.849,4.873a32.7,32.7,0,0,0,4.363,4.294,39.939,39.939,0,0,1,4.188,4.033c2.563,3.068,2.158,3.9,2.139,3.932-0.043.079-.546,0.785-4.339,0.308a28.646,28.646,0,0,1-8.276-2.548c-3.568-1.535-7.257-3.122-13.335-2.671-10.641.787-17.941-7.606-16.413-14.669a15.368,15.368,0,0,1,7.886-10.189,1,1,0,0,0,.532-0.921,15.371,15.371,0,0,1,4.882-11.925C242.913,231.613,253.807,234.014,258.36,243.434Z"></path><path id="tooth-4" data-name="tooth" class="cls-2" d="M98.833,225.159A17.282,17.282,0,0,0,87.6,233.522a17.279,17.279,0,0,0-12.86,5.547c-5.859,6.459-3.167,18.909,7.492,24.054,5.049,2.436,7.2,5.321,9.479,8.376A30.645,30.645,0,0,0,98,278.242c1.947,1.476,4.4,3.036,6.113,2.044l0.046-.027c1.363-.83,1.684-2.843,1.044-6.526a41.306,41.306,0,0,0-1.688-5.886c-1.2-3.548-2.449-7.216-.81-8.178l0.008,0c1.628-.94,4.181,1.975,6.651,4.794a41.267,41.267,0,0,0,4.26,4.414c2.873,2.4,4.778,3.129,6.177,2.365l0.047-.026c1.714-.99,1.586-3.9,1.281-6.323a31.035,31.035,0,0,0-2.643-8.66c-1.529-3.61-2.973-7.02-2.565-12.567C116.8,231.709,107.212,223.344,98.833,225.159Zm15.092,18.355c-0.443,6.029,1.165,9.824,2.719,13.494a29.027,29.027,0,0,1,2.5,8.129c0.473,3.761-.207,4.29-0.3,4.344l0,0c-0.034.018-.863,0.422-3.937-2.146a39.811,39.811,0,0,1-4.037-4.2,32.738,32.738,0,0,0-4.3-4.374c-1.8-1.372-3.434-1.653-4.85-.835l-0.023.013c-1.416.831-1.988,2.394-1.7,4.645a32.707,32.707,0,0,0,1.63,5.9,39.829,39.829,0,0,1,1.611,5.587c0.685,3.938-.081,4.455-0.114,4.475-0.076.046-.865,0.407-3.911-1.9a28.617,28.617,0,0,1-5.893-6.345c-2.322-3.113-4.723-6.332-10.213-8.981-9.609-4.638-11.735-15.557-6.88-20.909a15.364,15.364,0,0,1,11.924-4.881A1,1,0,0,0,89.067,235a15.371,15.371,0,0,1,10.19-7.887C106.458,225.553,114.692,233.08,113.925,243.514Z"></path><path id="tooth-5" data-name="tooth" class="cls-2" d="M46.1,177.461a12.1,12.1,0,0,0-9-3.883,12.1,12.1,0,0,0-7.864-5.854c-5.966-1.292-12.571,4.7-11.96,12.96a16.394,16.394,0,0,1-1.76,8.678,21.471,21.471,0,0,0-1.887,6.172c-0.213,1.7-.3,3.728.9,4.422l0.033,0.018c0.98,0.535,2.313.026,4.321-1.651a28.924,28.924,0,0,0,2.978-3.083c1.729-1.972,3.518-4.011,4.674-3.354l0.006,0c1.139,0.658.266,3.226-.578,5.71a28.861,28.861,0,0,0-1.185,4.127c-0.449,2.582-.225,3.992.728,4.573l0.033,0.019c1.2,0.693,2.916-.4,4.281-1.436a21.755,21.755,0,0,0,4.325-4.633,16.963,16.963,0,0,1,6.72-5.954C48.412,190.644,50.129,181.905,46.1,177.461Zm-5.845,15.574a18.355,18.355,0,0,0-7.228,6.371,20.339,20.339,0,0,1-4.053,4.36c-2.114,1.6-2.673,1.376-2.738,1.339l0,0c-0.023-.014-0.558-0.375-0.077-3.137a27.913,27.913,0,0,1,1.131-3.917,22.884,22.884,0,0,0,1.146-4.139c0.2-1.572-.2-2.66-1.191-3.232l-0.017-.009c-1-.568-2.147-0.368-3.411.594a22.871,22.871,0,0,0-3.006,3.054,27.943,27.943,0,0,1-2.823,2.932c-2.148,1.793-2.729,1.51-2.753,1.5-0.055-.03-0.549-0.382-0.216-3.037a20.044,20.044,0,0,1,1.784-5.794,17.78,17.78,0,0,0,1.87-9.334c-0.551-7.449,5.324-12.559,10.268-11.489a10.758,10.758,0,0,1,7.133,5.52,0.7,0.7,0,0,0,.645.373,10.757,10.757,0,0,1,8.347,3.417C48.526,182.221,46.844,189.847,40.251,193.035Z"></path><path id="tooth-6" data-name="tooth" class="cls-2" d="M244.866,44.49a12.1,12.1,0,0,0-9.111,3.619,12.1,12.1,0,0,0-9.7,1.421c-5.132,3.306-5.567,12.211.707,17.621a16.4,16.4,0,0,1,4.893,7.38,21.417,21.417,0,0,0,3.03,5.7c1.049,1.351,2.422,2.849,3.762,2.49l0.037-.01c1.071-.314,1.654-1.617,1.888-4.223A28.946,28.946,0,0,0,240.3,74.2c-0.171-2.617-.349-5.323.934-5.676l0.006,0c1.271-.34,2.47,2.093,3.629,4.446a28.851,28.851,0,0,0,2.08,3.756c1.508,2.143,2.664,2.982,3.748,2.719l0.037-.009c1.338-.359,1.778-2.346,2.012-4.043a21.754,21.754,0,0,0-.218-6.335,16.967,16.967,0,0,1,.542-8.962C255.826,52.174,250.86,44.781,244.866,44.49Zm6.879,15.145a18.363,18.363,0,0,0-.606,9.616,20.339,20.339,0,0,1,.217,5.95c-0.362,2.628-.917,2.863-0.99,2.883h0c-0.026.006-.66,0.129-2.273-2.164a27.89,27.89,0,0,1-1.97-3.569,22.912,22.912,0,0,0-2.116-3.737c-0.97-1.254-2.023-1.739-3.128-1.443l-0.018.005c-1.108.305-1.778,1.258-1.992,2.832a22.866,22.866,0,0,0,.034,4.285,28.1,28.1,0,0,1,.077,4.069c-0.25,2.787-.862,3-0.888,3.005-0.06.017-.659,0.118-2.3-2a20.019,20.019,0,0,1-2.835-5.358,17.783,17.783,0,0,0-5.279-7.923c-5.656-4.877-5.116-12.645-.863-15.384a10.756,10.756,0,0,1,8.947-1.14,0.7,0.7,0,0,0,.719-0.193,10.762,10.762,0,0,1,8.319-3.486C249.95,46.138,254.154,52.719,251.745,59.636Z"></path></svg> 