<?xml version="1.0" encoding="UTF-8" standalone="no"?> <svg xmlns:inkscape="http://www.inkscape.org/namespaces/inkscape" xmlns:sodipodi="http://sodipodi.sourceforge.net/DTD/sodipodi-0.dtd" xmlns:xlink="http://www.w3.org/1999/xlink" xmlns="http://www.w3.org/2000/svg" xmlns:svg="http://www.w3.org/2000/svg" version="1.1" id="svg2" xml:space="preserve" width="384.01334" height="142.99068" viewBox="0 0 384.01334 142.99068" sodipodi:docname="Gnatos Logo.svg" inkscape:version="1.1.2 (0a00cf5339, 2022-02-04)"><defs id="defs6"><linearGradient inkscape:collect="always" id="linearGradient35659"><stop style="stop-color:#8a5b88;stop-opacity:1;" offset="0" id="stop35655"></stop><stop style="stop-color:#8a5b88;stop-opacity:0;" offset="1" id="stop35657"></stop></linearGradient><rect x="153.3778" y="2.2945404" width="225.89691" height="41.456092" id="rect17521"></rect><clipPath id="clipPath16"><path d="M 0,107.243 H 288.01 V 0 H 0 Z" id="path14"></path></clipPath><linearGradient x1="0" y1="0" x2="1" y2="0" gradientUnits="userSpaceOnUse" gradientTransform="matrix(-75.973045,7.5403962,7.5403962,75.973045,93.935341,51.500626)" spreadMethod="pad" id="linearGradient42"><stop style="stop-opacity:1;stop-color:#d8e5eb" offset="0" id="stop34"></stop><stop style="stop-opacity:1;stop-color:#d8e5eb" offset="0.0355828" id="stop36"></stop><stop style="stop-opacity:1;stop-color:#007aab" offset="0.696688" id="stop38"></stop><stop style="stop-opacity:1;stop-color:#007aab" offset="1" id="stop40"></stop></linearGradient><clipPath id="clipPath52"><path d="M 0,107.243 H 288.01 V 0 H 0 Z" id="path50"></path></clipPath><linearGradient x1="0" y1="0" x2="1" y2="0" gradientUnits="userSpaceOnUse" gradientTransform="matrix(-27.498072,-91.087364,-91.087364,27.498072,87.852547,92.882904)" spreadMethod="pad" id="linearGradient76"><stop style="stop-opacity:1;stop-color:#8a5b88" offset="0" id="stop70"></stop><stop style="stop-opacity:1;stop-color:#8a5b88" offset="0.300726" id="stop72"></stop><stop style="stop-opacity:1;stop-color:#d1b7ce" offset="1" id="stop74"></stop></linearGradient><clipPath id="clipPath86"><path d="M 0,107.243 H 288.01 V 0 H 0 Z" id="path84"></path></clipPath><linearGradient inkscape:collect="always" xlink:href="#linearGradient35659" id="linearGradient35661" x1="96.034328" y1="-12.878606" x2="284.75393" y2="-12.878606" gradientUnits="userSpaceOnUse"></linearGradient></defs><g id="g8" inkscape:groupmode="layer" inkscape:label="Gnatos Logo" transform="matrix(1.3333333,0,0,-1.3333333,0,142.99067)"><g id="g10"><g id="g12" clip-path="url(#clipPath16)"><g id="g18" transform="translate(106.9596,53.6216)"><path d="m 0,0 c 0,-29.615 -23.944,-53.622 -53.48,-53.622 -29.536,0 -53.479,24.007 -53.479,53.622 0,29.615 23.943,53.622 53.479,53.622 C -23.944,53.622 0,29.615 0,0" style="fill:#ba87c5;fill-opacity:1;fill-rule:nonzero;stroke:none" id="path20"></path></g></g></g><g id="g22"><g id="g24"><g id="g30"><g id="g32"><path d="m 5.783,53.865 c 0,-18.582 10.598,-34.714 26.029,-42.64 v 0 c 2.861,3.604 7.866,7.104 11.635,9.44 v 0 c -2.862,0.679 -6.275,1.831 -8.965,3.765 v 0 c -5.363,3.855 -5.884,13.933 -5.935,20.578 v 0 c -3.727,0.346 -6.655,3.488 -6.655,7.303 v 0 c 0,4.046 3.292,7.338 7.337,7.338 v 0 c 4.047,0 7.339,-3.292 7.339,-7.338 v 0 c 0,-2.853 -1.641,-5.325 -4.024,-6.538 v 0 c 0.022,-5.355 0.329,-15.261 4.272,-18.095 v 0 C 41.471,24.332 49.36,23.73 49.439,23.725 v 0 l 0.244,-0.032 c 19.215,-3.772 24.059,-1.204 25.252,0.074 v 0 c 0.438,0.471 0.96,1.323 0.432,3.279 v 0 c -1.343,4.966 -0.88,9.183 1.335,12.194 v 0 c 1,1.358 -0.257,2.979 -0.404,3.159 v 0 l -1.149,1.414 1.289,1.291 c 1.914,1.878 2.369,2.323 1.016,5.029 v 0 c -2.519,5.04 1.724,7.436 3.535,8.46 v 0 c 0.303,0.171 0.597,0.335 0.862,0.504 v 0 c 0.368,0.232 0.999,0.721 1.071,1.378 v 0 c 0.077,0.685 -0.427,1.606 -1.417,2.597 v 0 c -3.133,3.134 -9.518,10.45 -10.679,12.385 v 0 c -0.306,0.51 -1.222,2.05 -1.13,23.386 v 0 c -5.085,1.867 -10.57,2.887 -16.291,2.887 v 0 C 27.147,101.73 5.783,80.258 5.783,53.865" style="fill:url(#linearGradient42);stroke:none" id="path44"></path></g></g></g></g><g id="g46"><g id="g48" clip-path="url(#clipPath52)"><g id="g54" transform="translate(32.5675,52.311)"><path d="m 0,0 c 0,1.84 -1.498,3.338 -3.338,3.338 -1.84,0 -3.338,-1.498 -3.338,-3.338 0,-1.84 1.498,-3.338 3.338,-3.338 C -1.498,-3.338 0,-1.84 0,0" style="fill:#ba87c5;fill-opacity:1;fill-rule:nonzero;stroke:none" id="path56"></path></g></g></g><g id="g58"><g id="g60"><g id="g66"><g id="g68"><path d="m 74.334,77.391 c 1.075,-1.636 6.808,-8.299 10,-11.49 v 0 c 1.921,-1.922 2.784,-3.896 2.564,-5.869 v 0 c -0.192,-1.72 -1.226,-3.253 -2.911,-4.317 v 0 c -0.318,-0.201 -0.668,-0.4 -1.03,-0.605 v 0 c -2.524,-1.425 -2.609,-1.818 -1.925,-3.188 v 0 c 2.074,-4.149 1.167,-6.422 -0.68,-8.515 v 0 c 0.827,-1.738 1.263,-4.241 -0.428,-6.539 v 0 c -1.855,-2.52 -1.403,-6.164 -0.696,-8.779 v 0 c 0.776,-2.871 0.316,-5.243 -1.367,-7.049 v 0 C 75.796,18.826 71.919,17.721 66.135,17.721 v 0 c -4.39,0 -9.889,0.642 -16.518,1.912 v 0 C 46.253,17.817 39.19,13.531 35.576,9.494 v 0 C 41.087,7.248 47.102,6 53.405,6 v 0 c 26.259,0 47.622,21.472 47.622,47.865 v 0 c 0,19.102 -11.194,35.621 -27.333,43.292 v 0 c -0.003,-8.986 0.217,-18.097 0.64,-19.766" style="fill:url(#linearGradient76);stroke:none" id="path78"></path></g></g></g></g><g id="g80"><g id="g82" clip-path="url(#clipPath86)"><g id="g88" transform="translate(53.4054,6)"><path d="m 0,0 c -6.303,0 -12.318,1.248 -17.83,3.494 3.614,4.037 10.677,8.323 14.042,10.14 6.629,-1.272 12.127,-1.913 16.517,-1.913 5.784,0 9.662,1.105 11.726,3.319 1.684,1.807 2.144,4.178 1.368,7.049 -0.707,2.614 -1.159,6.259 0.696,8.78 1.69,2.297 1.254,4.8 0.428,6.538 1.846,2.093 2.754,4.366 0.68,8.515 -0.685,1.37 -0.6,1.763 1.924,3.188 0.363,0.204 0.713,0.404 1.031,0.604 1.685,1.065 2.718,2.598 2.91,4.318 0.22,1.973 -0.642,3.947 -2.564,5.868 -3.191,3.192 -8.925,9.854 -9.999,11.491 -0.424,1.669 -0.643,10.78 -0.64,19.766 C 36.427,83.486 47.622,66.967 47.622,47.865 47.622,21.472 26.259,0 0,0 m -27.514,46.311 c 0,1.84 1.498,3.338 3.338,3.338 1.841,0 3.338,-1.498 3.338,-3.338 0,-1.84 -1.497,-3.338 -3.338,-3.338 -1.84,0 -3.338,1.498 -3.338,3.338 m -20.108,1.554 c 0,26.393 21.363,47.865 47.622,47.865 5.72,0 11.206,-1.02 16.291,-2.887 -0.092,-21.336 0.824,-22.876 1.129,-23.386 1.162,-1.935 7.546,-9.251 10.68,-12.385 0.99,-0.99 1.493,-1.912 1.417,-2.596 -0.073,-0.658 -0.703,-1.147 -1.071,-1.379 -0.265,-0.168 -0.559,-0.333 -0.862,-0.504 -1.812,-1.024 -6.055,-3.42 -3.535,-8.46 1.352,-2.705 0.898,-3.152 -1.017,-5.029 l -1.288,-1.291 1.149,-1.414 c 0.147,-0.18 1.403,-1.801 0.404,-3.159 -2.216,-3.011 -2.678,-7.228 -1.336,-12.194 0.529,-1.956 0.007,-2.808 -0.432,-3.278 -1.192,-1.279 -6.037,-3.846 -25.252,-0.076 l -0.243,0.033 c -0.079,0.005 -7.968,0.607 -12.623,3.953 -3.943,2.834 -4.25,12.74 -4.273,18.095 2.384,1.213 4.024,3.685 4.024,6.538 0,4.046 -3.292,7.338 -7.338,7.338 -4.046,0 -7.338,-3.292 -7.338,-7.338 0,-3.815 2.929,-6.957 6.656,-7.303 0.05,-6.645 0.571,-16.723 5.934,-20.578 2.69,-1.934 6.104,-3.085 8.966,-3.765 -3.769,-2.337 -8.774,-5.836 -11.635,-9.44 -15.432,7.926 -26.029,24.058 -26.029,42.64 M 0,99.73 C -28.464,99.73 -51.622,76.463 -51.622,47.865 -51.622,19.267 -28.464,-4 0,-4 28.464,-4 51.622,19.267 51.622,47.865 51.622,76.463 28.464,99.73 0,99.73" style="fill:#ffffff;fill-opacity:1;fill-rule:nonzero;stroke:none" id="path90"></path></g><g id="g92" transform="translate(148.8951,56.4702)"><path d="m 0,0 c 0,1.179 -0.124,2.172 -0.435,3.104 -1.427,3.972 -5.213,7.138 -10.552,7.138 -7.138,0 -12.166,-5.214 -12.166,-13.159 0,-5.959 3.724,-12.415 12.042,-12.415 4.717,0 8.877,3.041 10.49,7.138 C -0.248,-7.263 0,-6.083 0,-4.966 Z M 3.29,11.98 C 3.104,9.559 3.042,7.2 3.042,4.78 v -18.188 c 0,-7.262 -1.8,-11.421 -4.594,-13.904 -3.103,-2.793 -7.573,-3.662 -11.173,-3.662 -3.724,0 -8.007,0.931 -10.614,2.917 l 1.117,2.421 c 2.421,-1.614 5.649,-2.856 9.994,-2.856 7.138,0 12.228,3.601 12.228,12.663 v 4.346 h -0.124 c -1.738,-3.166 -5.649,-6.332 -11.856,-6.332 -8.504,0 -14.215,7.014 -14.215,14.525 0,9.994 7.325,16.015 14.898,16.015 6.58,0 10.118,-3.414 11.483,-6.269 h 0.125 l 0.186,5.524 z" style="fill:#ba87c5;fill-opacity:1;fill-rule:nonzero;stroke:none" id="path94"></path></g><g id="g96" transform="translate(158.5192,61.25)"><path d="M 0,0 C 0,2.42 -0.062,4.779 -0.249,7.2 H 2.607 L 2.855,1.241 H 2.979 C 4.78,4.903 9,7.945 14.463,7.945 c 2.731,0 11.608,-1.241 11.608,-13.594 v -16.946 h -3.042 v 16.946 c 0,5.835 -2.545,10.987 -9.373,10.987 -4.78,0 -8.752,-3.29 -10.118,-7.076 C 3.29,-2.421 3.042,-3.477 3.042,-4.407 V -22.595 H 0 Z" style="fill:#ba87c5;fill-opacity:1;fill-rule:nonzero;stroke:none" id="path98"></path></g><g id="g100" transform="translate(208.8004,54.5459)"><path d="m 0,0 c -7.883,0.248 -16.946,-0.993 -16.946,-7.883 0,-4.221 3.042,-6.269 6.518,-6.269 5.772,0 8.876,3.413 10.055,6.083 C -0.124,-7.449 0,-6.828 0,-6.332 Z m 0.745,-15.891 -0.497,4.594 H 0.124 c -1.552,-2.297 -5.338,-5.339 -10.801,-5.339 -6.765,0 -9.497,4.594 -9.497,8.194 0,6.766 6.27,11.173 20.174,10.987 v 0.683 c 0,2.234 -0.497,8.938 -8.442,8.876 -2.979,0 -6.083,-0.745 -8.566,-2.483 l -0.993,2.173 c 3.29,2.172 6.952,2.855 9.807,2.855 10.118,0 11.236,-7.821 11.236,-12.539 v -10.8 c 0,-2.421 0.124,-4.78 0.496,-7.201 z" style="fill:#ba87c5;fill-opacity:1;fill-rule:nonzero;stroke:none" id="path102"></path></g><g id="g104" transform="translate(224.0719,77.3267)"><path d="m 0,0 v -8.876 h 9.435 v -2.421 H 0 v -19.057 c 0,-3.662 1.117,-6.455 4.779,-6.455 1.801,0 3.042,0.248 3.911,0.559 l 0.373,-2.359 c -1.056,-0.435 -2.607,-0.808 -4.594,-0.808 -2.359,0 -4.283,0.746 -5.524,2.235 -1.49,1.676 -1.987,4.408 -1.987,7.201 v 18.684 h -5.462 v 2.421 h 5.462 v 7.945 z" style="fill:#007599;fill-opacity:1;fill-rule:nonzero;stroke:none" id="path106"></path></g><g id="g108" transform="translate(238.5978,53.4287)"><path d="m 0,0 c 0,-8.318 6.021,-13.035 12.477,-13.035 6.579,0 12.786,4.779 12.786,13.345 0,5.649 -3.786,12.973 -12.538,12.973 C 4.283,13.283 0,6.952 0,0 m 28.305,0.497 c 0,-11.174 -8.69,-16.016 -16.015,-16.016 -8.876,0 -15.332,6.519 -15.332,15.332 0,9.932 7.449,15.954 15.767,15.954 9.559,0 15.58,-6.767 15.58,-15.27" style="fill:#007599;fill-opacity:1;fill-rule:nonzero;stroke:none" id="path110"></path></g><g id="g112" transform="translate(270.0704,42.6899)"><path d="m 0,0 c 1.8,-1.117 4.47,-2.234 7.449,-2.234 5.214,0 7.511,2.731 7.511,5.772 0,3.476 -2.359,5.152 -7.015,6.642 -5.4,1.738 -8.069,4.531 -8.069,8.07 0,4.22 3.352,8.255 9.808,8.255 2.917,0 5.462,-0.807 7.2,-1.986 l -1.179,-2.483 c -0.994,0.683 -3.166,1.924 -6.58,1.924 -4.097,0 -6.27,-2.483 -6.27,-5.338 0,-3.352 2.545,-4.656 6.953,-6.145 5.462,-1.862 8.131,-4.221 8.131,-8.69 0,-4.842 -3.972,-8.567 -10.738,-8.567 -3.166,0 -6.083,0.869 -8.318,2.173 z" style="fill:#007599;fill-opacity:1;fill-rule:nonzero;stroke:none" id="path114"></path></g></g></g><text xml:space="preserve" transform="matrix(0.75000002,0,0,-0.75000002,0,107.24301)" id="text17519" style="font-style:normal;font-weight:normal;font-size:40px;line-height:1.25;font-family:sans-serif;white-space:pre;shape-inside:url(#rect17521);fill:#000000;fill-opacity:1;stroke:none"></text><text xml:space="preserve" style="font-style:normal;font-weight:normal;font-size:20px;line-height:1.25;font-family:sans-serif;fill:#323232;fill-opacity:0.84464806;stroke:none;stroke-width:0.75" x="95.014328" y="-5.3786063" id="text21399" transform="scale(1,-1)"><tspan sodipodi:role="line" id="tspan21397" style="font-size:20px;stroke-width:0.75;fill:#323232;fill-opacity:0.84464806" x="95.014328" y="-5.3786063">studio odontoiatrico</tspan></text></g></svg> 